# xmcd
#
# Track frame offsets: 
#        150
#        10302
#        27215
#        44045
#        60180
#        72332
#        87895
#        95692
#        110580
#        126297
#        135265
#        144347
#
# Disc length: 2146 seconds
#
# Revision: 0
# Processed by: cddbd v1.5.2PL0 Copyright (c) Steve Scherf et al.
# Submitted via: ExactAudioCopy v0.95b4
#
DISCID=a008600c
DTITLE=Ryan Shaw - This Is Ryan Shaw
DYEAR=2007
DGENRE=Soul
TTITLE0=Do the 45
TTITLE1=We Got Love
TTITLE2=Nobody
TTITLE3=I Am Your Man
TTITLE4=Working On A Building Of Love
TTITLE5=I Found A Love
TTITLE6=I Do The Jerk
TTITLE7=Lookin' For A Love
TTITLE8=I'll Always Love You
TTITLE9=I'll Be Satisfied
TTITLE10=Mish Mash
TTITLE11=Over and Done
EXTD=
EXTT0=
EXTT1=
EXTT2=
EXTT3=
EXTT4=
EXTT5=
EXTT6=
EXTT7=
EXTT8=
EXTT9=
EXTT10=
EXTT11=
PLAYORDER=
